<svg width="72" height="60" viewBox="0 0 72 60" fill="none" xmlns="http://www.w3.org/2000/svg">
<path d="M6.36175 34.3035C6.11227 34.3035 5.86279 34.1788 5.73805 34.0541C2.12058 31.8087 0 27.9418 0 23.7006C0 17.9626 3.99168 12.973 9.48025 11.6008C10.6029 4.86487 16.341 0 23.2017 0C30.3119 0 36.2994 5.48856 37.0478 12.3493C38.6694 11.4761 41.1642 10.6029 45.2807 10.6029C46.0291 10.6029 46.5281 11.1019 46.5281 11.8503C46.5281 12.5988 46.0291 13.0977 45.2807 13.0977C38.5447 13.0977 36.9231 15.5925 36.9231 15.7173C36.6736 16.2162 36.0499 16.4657 35.4262 16.2162C34.9272 16.0915 34.553 15.4678 34.553 14.9688C34.553 14.5946 34.553 14.2204 34.553 13.8462C34.553 7.48441 29.4387 2.37006 23.0769 2.37006C17.2141 2.37006 12.3493 6.73597 11.7256 12.5988C11.7256 13.0977 11.2266 13.5967 10.7277 13.7214C5.98753 14.5946 2.4948 18.8358 2.4948 23.7006C2.4948 27.0686 4.24116 30.1871 7.11019 32.0582C7.73389 32.4324 7.85863 33.1809 7.48441 33.8046C7.23493 34.1788 6.73597 34.3035 6.36175 34.3035Z" fill="#FFCE00"/>
<path d="M71.7256 47.5261C70.9772 42.1622 66.1123 38.2953 60.6237 38.2953H60.499C61.1227 36.2995 61.3722 34.0541 60.998 31.8088C60.0001 24.8234 54.1373 19.4595 47.1518 18.8358C39.5427 18.2121 33.1809 23.2017 31.3098 30.0625C30.0624 29.6882 28.6903 29.4388 27.1934 29.4388C21.4554 29.4388 16.7152 33.181 14.9689 38.2953H12.4741C6.9855 38.2953 2.12063 42.1622 1.37219 47.5261C0.374271 54.262 5.61336 60.0001 12.0998 60.0001H60.998C67.6092 60.0001 72.7235 54.262 71.7256 47.5261ZM32.9314 38.919C32.9314 36.9232 34.5531 35.4263 36.4242 35.4263C38.42 35.4263 39.9169 37.0479 39.9169 38.919V42.4117C39.9169 44.4076 38.2953 45.9044 36.4242 45.9044C34.4283 45.9044 32.9314 44.2828 32.9314 42.4117V38.919ZM37.1726 49.1477V52.0167H40.0416C40.4159 52.0167 40.6653 52.2662 40.6653 52.6404C40.6653 53.0146 40.4159 53.2641 40.0416 53.2641H32.9314C32.5572 53.2641 32.3077 53.0146 32.3077 52.6404C32.3077 52.2662 32.5572 52.0167 32.9314 52.0167H35.8005V49.1477C32.4325 48.7735 29.6882 46.0292 29.6882 42.5365C29.6882 42.1622 29.9377 41.9128 30.3119 41.9128C30.6861 41.9128 30.9356 42.1622 30.9356 42.5365C30.9356 45.5302 33.4304 48.025 36.4242 48.025C39.4179 48.025 41.9127 45.5302 41.9127 42.5365C41.9127 42.1622 42.1622 41.9128 42.5364 41.9128C42.9107 41.9128 43.1601 42.1622 43.1601 42.5365C43.1601 46.0292 40.5406 48.7735 37.1726 49.1477Z" fill="#FFCE00"/>
</svg>
