<svg width="60" height="60" viewBox="0 0 60 60" fill="none" xmlns="http://www.w3.org/2000/svg">
<path d="M18.5185 28.7831H11.0053V36.2963H18.5185V28.7831Z" fill="white"/>
<path d="M33.4392 28.7831H25.9259V36.2963H33.4392V28.7831Z" fill="white"/>
<path d="M48.4656 28.7831H40.9524V36.2963H48.4656V28.7831Z" fill="white"/>
<path d="M18.5185 43.7037H11.0053V51.2169H18.5185V43.7037Z" fill="white"/>
<path d="M33.4392 43.7037H25.9259V51.2169H33.4392V43.7037Z" fill="white"/>
<path d="M48.4656 43.7037H40.9524V51.2169H48.4656V43.7037Z" fill="white"/>
<path d="M18.4127 11.6402C20.5291 11.6402 22.2222 9.94709 22.2222 7.83069V3.80952C22.2222 1.69312 20.5291 0 18.4127 0C16.2963 0 14.6032 1.69312 14.6032 3.80952V7.93651C14.709 9.94709 16.4021 11.6402 18.4127 11.6402Z" fill="white"/>
<path d="M58.836 8.88889C58.3069 8.04233 57.3545 7.51323 56.1905 7.51323H47.619V7.93651C47.619 11.746 44.5503 14.9206 40.6349 14.9206C36.7196 14.9206 33.6508 11.8519 33.6508 7.93651V7.51323H25.3968V7.93651C25.3968 11.746 22.328 14.9206 18.4127 14.9206C14.4974 14.9206 11.4286 11.8519 11.4286 7.93651V7.51323H3.1746C1.48148 7.51323 0 8.88889 0 10.6878V56.8254C0 58.5185 1.37566 60 3.1746 60H56.2963C57.9894 60 59.4709 58.6243 59.4709 56.8254V10.6878C59.3651 10.0529 59.1534 9.41799 58.836 8.88889ZM57.2487 56.8254C57.2487 57.3545 56.8254 57.8836 56.1905 57.8836H3.1746C2.6455 57.8836 2.1164 57.4603 2.1164 56.8254V22.5397H57.3545V56.8254H57.2487Z" fill="white"/>
<path d="M40.6349 11.6402C42.7513 11.6402 44.4444 9.94709 44.4444 7.83069V3.80952C44.4444 1.69312 42.7513 0 40.6349 0C38.5185 0 36.8254 1.69312 36.8254 3.80952V7.93651C36.8254 9.94709 38.5185 11.6402 40.6349 11.6402Z" fill="white"/>
</svg>
