<svg width="72" height="60" viewBox="0 0 72 60" fill="none" xmlns="http://www.w3.org/2000/svg">
<path d="M6.36175 34.3035C6.11227 34.3035 5.86279 34.1788 5.73805 34.0541C2.12058 31.8087 0 27.9418 0 23.7006C0 17.9626 3.99168 12.973 9.48025 11.6008C10.6029 4.86487 16.341 0 23.2017 0C30.3119 0 36.2994 5.48856 37.0478 12.3493C38.6694 11.4761 41.1642 10.6029 45.2807 10.6029C46.0291 10.6029 46.5281 11.1019 46.5281 11.8503C46.5281 12.5988 46.0291 13.0977 45.2807 13.0977C38.5447 13.0977 36.9231 15.5925 36.9231 15.7173C36.6736 16.2162 36.0499 16.4657 35.4262 16.2162C34.9272 16.0915 34.553 15.4678 34.553 14.9688C34.553 14.5946 34.553 14.2204 34.553 13.8462C34.553 7.48441 29.4387 2.37006 23.0769 2.37006C17.2141 2.37006 12.3493 6.73597 11.7256 12.5988C11.7256 13.0977 11.2266 13.5967 10.7277 13.7214C5.98753 14.5946 2.4948 18.8358 2.4948 23.7006C2.4948 27.0686 4.24116 30.1871 7.11019 32.0582C7.73389 32.4324 7.85863 33.1809 7.48441 33.8046C7.23493 34.1788 6.73597 34.3035 6.36175 34.3035Z" fill="white"/>
<path d="M71.7256 47.5261C70.9772 42.1622 66.1123 38.2953 60.6237 38.2953H60.499C61.1227 36.2995 61.3722 34.0541 60.998 31.8088C60.0001 24.8234 54.1373 19.4595 47.1518 18.8358C39.5427 18.2121 33.1809 23.2017 31.3098 30.0625C30.0624 29.6882 28.6903 29.4388 27.1934 29.4388C21.4554 29.4388 16.7152 33.181 14.9689 38.2953H12.4741C6.9855 38.2953 2.12063 42.1622 1.37219 47.5261C0.374271 54.262 5.61336 60.0001 12.0998 60.0001H60.998C67.6092 60.0001 72.7235 54.262 71.7256 47.5261Z" fill="white"/>
</svg>
