<svg width="83" height="60" viewBox="0 0 83 60" fill="none" xmlns="http://www.w3.org/2000/svg">
<path d="M72.233 0C66.9903 0 62.767 3.93204 62.0388 8.88349H4.36893C1.8932 8.88349 0 10.7767 0 13.2524V55.6311C0 58.1068 1.8932 60 4.36893 60H67.8641C70.3398 60 72.233 58.1068 72.233 55.6311V20.6796C77.9126 20.6796 82.5728 16.0194 82.5728 10.3398C82.5728 4.66019 77.9126 0 72.233 0ZM69.3204 20.2427V55.6311V55.7767L45.2913 33.3495L64.3689 17.0388C65.6796 18.6408 67.2815 19.6602 69.3204 20.2427ZM61.8932 11.7961C62.0388 12.8155 62.3301 13.6893 62.767 14.5631L38.0097 35.8252C36.8447 36.699 35.3883 36.699 34.2233 35.8252L6.1165 11.7961H61.8932ZM2.91262 55.9223C2.91262 55.7767 2.91262 55.7767 2.91262 55.6311V13.2524C2.91262 13.1068 2.91262 13.1068 2.91262 12.9612L26.7961 33.3495L2.91262 55.9223ZM28.9806 35.2427L32.1845 38.0097C33.3495 38.8835 34.6602 39.466 35.9709 39.466C37.2816 39.466 38.5922 39.0291 39.7573 38.0097L42.9612 35.2427L66.2621 57.0874H5.97087L28.9806 35.2427ZM76.165 10.6311C75 10.6311 74.5631 9.75728 72.6699 10.1942C73.9806 11.6505 75.2913 11.2136 76.0194 12.233C76.3107 12.6699 76.4563 12.9612 76.4563 13.3981C76.4563 14.4175 75.7281 15.1456 74.7087 15.1456C73.6893 15.1456 72.8155 14.4175 72.8155 13.1068C72.8155 12.3786 72.9612 11.6505 72.233 10.6311C72.0874 10.9223 71.9417 11.2136 71.7961 11.5049C71.6505 12.233 71.6505 12.6699 71.6505 13.2524C71.6505 14.5631 70.9223 15.2913 69.7573 15.2913C69.6116 15.2913 69.3204 15.2913 69.1748 15.1456C68.5922 15 68.1553 14.4175 68.0097 13.835C68.0097 13.6893 68.0097 13.5437 68.0097 13.3981C68.0097 13.1068 68.1553 12.6699 68.4466 12.233C68.5922 12.0874 68.5922 12.0874 68.7379 11.9417C69.0291 11.6505 69.6116 11.6505 70.3398 11.3592C70.6311 11.2136 71.068 11.068 71.3592 10.7767C71.5049 10.6311 71.6505 10.4854 71.7961 10.3398C71.3592 10.1942 71.068 10.1942 70.9223 10.1942C70.3398 10.1942 69.9029 10.3398 69.466 10.4854C69.0291 10.6311 68.7379 10.7767 68.301 10.7767C68.0097 10.7767 67.8641 10.7767 67.5728 10.6311C66.9903 10.1942 66.4078 9.75728 66.4078 8.88349C66.4078 7.86408 67.2815 7.13592 68.1553 7.13592C69.9029 7.13592 69.7573 9.02913 71.7961 9.75728C71.6505 7.86408 70.3398 7.57282 70.3398 6.26214C70.3398 5.24272 71.068 4.51456 72.0874 4.51456C73.1068 4.51456 73.835 5.24272 73.835 6.26214C73.835 7.57282 72.5243 7.86408 72.3786 9.75728C74.4175 9.02913 74.2718 7.13592 76.0194 7.13592C77.0388 7.13592 77.767 8.00971 77.767 9.02913C77.9126 10.0485 76.8932 10.6311 76.165 10.6311Z" fill="white"/>
</svg>
