<svg width="34" height="24" viewBox="0 0 34 24" fill="none" xmlns="http://www.w3.org/2000/svg">
<path d="M31.0857 24H2.91429C1.30171 24 0 22.7136 0 21.12V2.88C0 1.2864 1.30171 0 2.91429 0H31.0857C32.6983 0 34 1.2864 34 2.88V21.12C34 22.7136 32.6983 24 31.0857 24Z" fill="#016FD0"/>
<path d="M31.0857 0.96C32.1543 0.96 33.0286 1.824 33.0286 2.88V21.12C33.0286 22.176 32.1543 23.04 31.0857 23.04H2.91429C1.84571 23.04 0.971429 22.176 0.971429 21.12V2.88C0.971429 1.824 1.84571 0.96 2.91429 0.96H31.0857ZM31.0857 0H2.91429C1.30171 0 0 1.2864 0 2.88V21.12C0 22.7136 1.30171 24 2.91429 24H31.0857C32.6983 24 34 22.7136 34 21.12V2.88C34 1.2864 32.6983 0 31.0857 0Z" fill="#EAEAEA"/>
<path d="M7.19756 17.8559V12.8735H12.5307L13.1038 13.6127L13.6964 12.8735H33.0278V17.5199C33.0278 17.5199 32.5227 17.8559 31.9398 17.8655H21.225L20.5838 17.0783V17.8655H18.4758V16.5215C18.4758 16.5215 18.1844 16.7135 17.5627 16.7135H16.8438V17.8655H13.6478L13.0747 17.1071L12.4918 17.8655H7.19756V17.8559ZM0.970703 9.11034L2.17527 6.33594H4.25413L4.93413 7.89114V6.33594H7.51813L7.92613 7.45914L8.3147 6.33594H19.9136V6.90234C19.9136 6.90234 20.5256 6.33594 21.5261 6.33594L25.2856 6.34554L25.9558 7.88154V6.33594H28.1221L28.7147 7.21914V6.33594H30.9004V11.3183H28.7147L28.1416 10.4351V11.3183H24.965L24.6444 10.5311H23.7896L23.4787 11.3183H21.3221C20.4576 11.3183 19.9136 10.7615 19.9136 10.7615V11.3183H16.669L16.0278 10.5311V11.3183H3.94327L3.6227 10.5311H2.76785L2.44727 11.3183H0.970703V9.11034Z" fill="white"/>
<path d="M2.6907 6.94092L1.07812 10.6369H2.12727L2.42841 9.89772H4.15755L4.44898 10.6369H5.51755L3.90498 6.94092H2.6907ZM3.28327 7.80492L3.80784 9.10092H2.7587L3.28327 7.80492ZM5.63412 10.6465V6.94092L7.12041 6.95052L7.98498 9.34092L8.83984 6.94092H10.3164V10.6369H9.38384V7.92012L8.39298 10.6465H7.56727L6.5667 7.92012V10.6465H5.63412ZM10.9576 10.6465V6.94092H14.0176V7.77612H11.9096V8.40972H13.969V9.18732H11.9096V9.84012H14.0176V10.6465H10.9576ZM14.5518 6.94092V10.6369H15.4844V9.33132H15.8827L17.0096 10.6465H18.1558L16.9221 9.28332C17.4273 9.24492 17.9518 8.81292 17.9518 8.15052C17.9518 7.37292 17.3301 6.95052 16.6404 6.95052H14.5518V6.94092ZM15.4941 7.77612H16.5627C16.8153 7.77612 17.0096 7.97772 17.0096 8.16972C17.0096 8.41932 16.7667 8.56332 16.5821 8.56332H15.4941V7.77612ZM19.2924 10.6465H18.3404V6.94092H19.2924V10.6465ZM21.5558 10.6465H21.3518C20.3513 10.6465 19.749 9.86892 19.749 8.81292C19.749 7.72812 20.3513 6.95052 21.6141 6.95052H22.6536V7.82412H21.5656C21.0507 7.82412 20.6913 8.21772 20.6913 8.82252C20.6913 9.54252 21.109 9.84012 21.7016 9.84012H21.9444L21.5558 10.6465ZM23.5958 6.94092L21.9833 10.6369H23.0324L23.3336 9.89772H25.0627L25.3541 10.6369H26.4227L24.8101 6.94092H23.5958ZM24.1884 7.80492L24.713 9.10092H23.6541L24.1884 7.80492ZM26.5393 10.6465V6.94092H27.7341L29.2593 9.26412V6.94092H30.1918V10.6369H29.0358L27.4718 8.25612V10.6465H26.5393ZM7.89755 17.1169V13.4209H10.9576V14.2465H8.84955V14.8801H10.909V15.6577H8.84955V16.3105H10.9576V17.1169H7.89755ZM22.877 17.1169V13.4209H25.937V14.2465H23.829V14.8801H25.8787V15.6577H23.829V16.3105H25.937V17.1169H22.877ZM11.0741 17.1169L12.5604 15.2929L11.0353 13.4209H12.2204L13.1238 14.5825L14.037 13.4209H15.1736L13.6678 15.2737L15.1638 17.1265H13.9884L13.1044 15.9841L12.2398 17.1265L11.0741 17.1169ZM15.2707 13.4209V17.1169H16.2324V15.9457H17.2233C18.0587 15.9457 18.6901 15.5041 18.6901 14.6593C18.6901 13.9585 18.1947 13.4113 17.3496 13.4113H15.2707V13.4209ZM16.2324 14.2561H17.2718C17.5438 14.2561 17.7381 14.4193 17.7381 14.6785C17.7381 14.9281 17.5438 15.1009 17.2718 15.1009H16.2324V14.2561ZM19.0884 13.4209V17.1169H20.021V15.8017H20.4193L21.5461 17.1169H22.6924L21.4587 15.7537C21.9638 15.7153 22.4884 15.2833 22.4884 14.6209C22.4884 13.8433 21.8667 13.4209 21.177 13.4209H19.0884ZM20.0307 14.2465H21.0993C21.3518 14.2465 21.5461 14.4481 21.5461 14.6401C21.5461 14.8897 21.3033 15.0337 21.1187 15.0337H20.0307V14.2465ZM26.3741 17.1169V16.3201H28.249C28.5307 16.3201 28.6473 16.1761 28.6473 16.0129C28.6473 15.8593 28.5307 15.6961 28.249 15.6961H27.3941C26.6558 15.6961 26.2478 15.2545 26.2478 14.5921C26.2478 13.9969 26.6267 13.4305 27.7147 13.4305H29.541L29.1427 14.2657H27.569C27.2678 14.2657 27.1707 14.4193 27.1707 14.5729C27.1707 14.7265 27.2873 14.8993 27.5204 14.8993H28.4044C29.2301 14.8993 29.5798 15.3601 29.5798 15.9649C29.5798 16.6081 29.1816 17.1457 28.3558 17.1457H26.3741V17.1169ZM29.813 17.1169V16.3201H31.6878C31.9696 16.3201 32.0861 16.1761 32.0861 16.0129C32.0861 15.8593 31.9696 15.6961 31.6878 15.6961H30.8427C30.1044 15.6961 29.6964 15.2545 29.6964 14.5921C29.6964 13.9969 30.0753 13.4305 31.1633 13.4305H32.9896L32.5913 14.2657H31.0175C30.7164 14.2657 30.6193 14.4193 30.6193 14.5729C30.6193 14.7265 30.7358 14.8993 30.969 14.8993H31.853C32.6787 14.8993 33.0284 15.3601 33.0284 15.9649C33.0284 16.6081 32.6301 17.1457 31.8044 17.1457H29.813V17.1169Z" fill="#016FD0"/>
</svg>
