<svg width="61" height="61" viewBox="0 0 61 61" fill="none" xmlns="http://www.w3.org/2000/svg">
<path d="M30.4422 58.8844C46.1504 58.8844 58.8844 46.1504 58.8844 30.4422C58.8844 14.734 46.1504 2 30.4422 2C14.734 2 2 14.734 2 30.4422C2 46.1504 14.734 58.8844 30.4422 58.8844Z" stroke="#111111" stroke-width="3" stroke-miterlimit="10" stroke-linecap="round" stroke-linejoin="round"/>
<path d="M18.3814 29.4372C17.2759 31.4473 16.6729 33.7588 16.6729 36.1709C16.6729 42.1005 20.4919 47.2262 25.7181 49.1357C26.4216 49.4372 26.9241 48.5327 26.3211 48.0302C22.6025 44.7136 24.11 38.6834 30.5422 29.3367C35.5673 22 33.0548 13.8593 31.1452 9.53771C30.9442 9.0352 30.2407 9.0352 29.9392 9.43721L18.3814 29.4372Z" fill="#111111"/>
<path d="M44.4118 36.1709C44.4118 33.7589 43.8088 31.4473 42.7032 29.4373L39.6882 24.2111C39.3867 23.7086 38.7836 24.0101 38.7836 24.5126C39.0851 33.5579 29.3364 40.6935 30.2409 45.8192C31.045 50.0403 33.859 49.7388 35.5676 49.1358C35.9696 49.0352 36.3716 48.8342 36.6731 48.6332C36.7736 48.6332 36.7736 48.5327 36.7736 48.5327C41.2962 46.3217 44.4118 41.5981 44.4118 36.1709Z" fill="#111111"/>
</svg>
