<svg width="16" height="16" viewBox="0 0 16 16" fill="none" xmlns="http://www.w3.org/2000/svg">
<path fill-rule="evenodd" clip-rule="evenodd" d="M7.67485 0.00234426C7.47751 0.00225571 7.29465 0.00217366 7.12466 0.00243968V0C5.30589 0.00203306 4.95701 0.0142314 4.05677 0.0548927C3.1053 0.0986035 2.5887 0.257182 2.2447 0.391365C1.7893 0.568648 1.46401 0.780086 1.12245 1.12164C0.780899 1.4632 0.569054 1.78849 0.392178 2.24389C0.258606 2.58789 0.0996201 3.10428 0.0561125 4.05576C0.00935209 5.08449 0 5.39189 0 7.99787C0 10.6038 0.00935209 10.9129 0.0561125 11.9416C0.0994168 12.8931 0.258606 13.4095 0.392178 13.7531C0.569461 14.2087 0.780899 14.5331 1.12245 14.8747C1.46401 15.2163 1.7893 15.4277 2.2447 15.6046C2.5889 15.7381 3.1053 15.8971 4.05677 15.941C5.0855 15.9878 5.39433 15.998 8.0001 15.998C10.6057 15.998 10.9147 15.9878 11.9434 15.941C12.8949 15.8975 13.4117 15.739 13.7553 15.6048C14.2109 15.4279 14.5352 15.2165 14.8767 14.8749C15.2183 14.5336 15.4301 14.2093 15.607 13.7539C15.7406 13.4103 15.8996 12.8939 15.9431 11.9424C15.9898 10.9137 16 10.6047 16 8.00031C16 5.39595 15.9898 5.08693 15.9431 4.0582C15.8998 3.10672 15.7406 2.59033 15.607 2.24674C15.4297 1.79133 15.2183 1.46604 14.8767 1.12449C14.5354 0.782932 14.2107 0.571494 13.7553 0.394617C13.4113 0.261045 12.8949 0.10206 11.9434 0.0585522C10.9145 0.0117918 10.6057 0.00243968 8.0001 0.00243968L7.67485 0.00234426ZM12.0382 2.79343C12.0382 2.14671 12.5627 1.62279 13.2092 1.62279V1.62238C13.8557 1.62238 14.3803 2.14691 14.3803 2.79343C14.3803 3.43994 13.8557 3.96447 13.2092 3.96447C12.5627 3.96447 12.0382 3.43994 12.0382 2.79343ZM8.0001 2.99104C5.23249 2.99104 2.9886 5.23493 2.9886 8.00254C2.9886 10.7701 5.23249 13.013 8.0001 13.013C10.7677 13.013 13.0108 10.7701 13.0108 8.00254C13.0108 5.235 10.7676 2.99115 8.0001 2.99104ZM11.253 8.00254C11.253 6.20592 9.79652 4.74964 8.0001 4.74964C6.20348 4.74964 4.7472 6.20592 4.7472 8.00254C4.7472 9.79896 6.20348 11.2554 8.0001 11.2554C9.79652 11.2554 11.253 9.79896 11.253 8.00254Z" fill="#8AA1B1"/>
</svg>
