<svg width="16" height="16" viewBox="0 0 16 16" fill="none" xmlns="http://www.w3.org/2000/svg">
<path fill-rule="evenodd" clip-rule="evenodd" d="M3.85808 1.7798C3.83582 0.769504 3.11335 0 1.94017 0C0.766986 0 0 0.769504 0 1.7798C0 2.76917 0.744317 3.56084 1.89565 3.56084H1.91757C3.11335 3.56084 3.85808 2.76917 3.85808 1.7798ZM3.63221 4.96724H0.20279V15.2712H3.63221V4.96724ZM12.0515 4.72528C14.3082 4.72528 16 6.19829 16 9.36323L15.9999 15.2712H12.5706V9.75858C12.5706 8.37393 12.0743 7.42907 10.8329 7.42907C9.88541 7.42907 9.32108 8.06604 9.07323 8.68126C8.98255 8.90175 8.96029 9.20895 8.96029 9.5169V15.2715H5.53046C5.53046 15.2715 5.57566 5.93438 5.53046 4.96751H8.96029V6.42698C9.41545 5.72539 10.2307 4.72528 12.0515 4.72528Z" fill="#8AA1B1"/>
</svg>
