<svg width="14" height="17" viewBox="0 0 14 17" fill="none" xmlns="http://www.w3.org/2000/svg">
<path d="M6.90938 0.5C5.05995 0.5 3.56068 1.99926 3.56068 3.84869V5.23069H4.73007V3.84869C4.73007 2.64509 5.70578 1.66938 6.90938 1.66938C8.11298 1.66938 9.08869 2.64509 9.08869 3.84869V5.23069H10.2581V3.84869C10.2581 1.99926 8.75881 0.5 6.90938 0.5Z" fill="#111111"/>
<path fill-rule="evenodd" clip-rule="evenodd" d="M0 7.56998C0 6.27831 1.0471 5.23121 2.33877 5.23121H11.4812C12.7729 5.23121 13.82 6.27831 13.82 7.56998V13.9484C13.82 15.2401 12.7729 16.2872 11.4812 16.2872H2.33877C1.0471 16.2872 0 15.2401 0 13.9484V7.56998ZM2.33877 6.4006H11.4812C12.1271 6.4006 12.6506 6.92415 12.6506 7.56998V13.9484C12.6506 14.5943 12.1271 15.1178 11.4812 15.1178H2.33877C1.69294 15.1178 1.16938 14.5943 1.16938 13.9484V7.56998C1.16938 6.92415 1.69293 6.4006 2.33877 6.4006Z" fill="#111111"/>
</svg>
