<svg width="34" height="24" viewBox="0 0 34 24" fill="none" xmlns="http://www.w3.org/2000/svg">
<path d="M31.0857 24H2.91429C1.30171 24 0 22.7136 0 21.12V2.88C0 1.2864 1.30171 0 2.91429 0H31.0857C32.6983 0 34 1.2864 34 2.88V21.12C34 22.7136 32.6983 24 31.0857 24Z" fill="#F8F8F8"/>
<path d="M31.0857 0.96C32.1543 0.96 33.0286 1.824 33.0286 2.88V21.12C33.0286 22.176 32.1543 23.04 31.0857 23.04H2.91429C1.84571 23.04 0.971429 22.176 0.971429 21.12V2.88C0.971429 1.824 1.84571 0.96 2.91429 0.96H31.0857ZM31.0857 0H2.91429C1.30171 0 0 1.2864 0 2.88V21.12C0 22.7136 1.30171 24 2.91429 24H31.0857C32.6983 24 34 22.7136 34 21.12V2.88C34 1.2864 32.6983 0 31.0857 0Z" fill="#E7E7E7"/>
<path d="M26.7915 12C26.7915 15.312 24.0812 18 20.7395 18C17.3978 18 14.6875 15.3216 14.6875 12C14.6875 8.6784 17.4075 6 20.7395 6C24.0715 6 26.7915 8.688 26.7915 12Z" fill="#F79F1A"/>
<path d="M19.3208 12C19.3208 15.312 16.6008 18 13.2688 18C9.93675 18 7.20703 15.312 7.20703 12C7.20703 8.688 9.91732 6 13.259 6C16.6008 6 19.3208 8.688 19.3208 12Z" fill="#EA001B"/>
<path d="M16.9897 7.27686C15.5714 8.37126 14.6777 10.0801 14.6777 12.0001C14.6777 13.9201 15.5909 15.6289 16.9897 16.7233C18.408 15.6289 19.3017 13.9201 19.3017 12.0001C19.3017 10.0801 18.408 8.37126 16.9897 7.27686Z" fill="#FF5F01"/>
</svg>
