<svg width="80" height="80" viewBox="0 0 80 80" fill="none" xmlns="http://www.w3.org/2000/svg">
<circle cx="40" cy="40" r="40" fill="#FFFAE6"/>
<mask id="mask0" mask-type="alpha" maskUnits="userSpaceOnUse" x="0" y="0" width="80" height="80">
<circle cx="40" cy="40" r="40" fill="#C4C4C4"/>
</mask>
<g mask="url(#mask0)">
<path d="M166.881 68.9385L160.33 72.3799C153.156 76.1341 149.101 73.6313 149.101 64.2458V23.8883C149.101 -18.6592 124.147 -44 82.0367 -44C42.1101 -44 16.2202 -26.7933 16.2202 -5.2067C16.2202 7.62011 23.3945 15.1285 35.5596 15.1285C69.8716 15.1285 54.8991 -37.1173 77.9817 -37.1173C87.9633 -37.1173 94.5138 -24.2905 94.5138 -5.2067V16.3799C37.4312 17.0056 0 41.4078 0 77.0726C0 104.603 19.3394 123.061 49.5963 123.061C76.422 123.061 94.5138 108.67 98.2569 84.581H98.5688L106.055 124H111.046L170 74.5698L166.881 68.9385ZM72.367 103.665C60.5138 103.665 53.9633 92.0894 53.9633 72.3799C53.9633 42.6592 68.9358 24.8268 94.5138 23.2626V49.2291C94.5138 81.7654 85.7798 103.665 72.367 103.665Z" fill="#FFCE00"/>
</g>
<path d="M61.6989 56.7536C61.6989 58.2609 62.5618 58.6667 63.9425 58.7246V60H48.9853V58.6667C50.4235 58.6087 51.2289 58.2029 51.2289 56.6956V25.7971L41.8519 47.5362C40.2987 51.1304 38.6879 55.4203 38.6879 60H36.9045C36.9045 55.0725 35.4088 51.0725 32.705 46.1449L24.4211 31.1884C23.0979 28.8116 22.5802 27.0725 22.235 24.3478V50.6667C22.235 56.1159 25.1689 58.3768 30.1738 58.6667V60H17V58.6667C19.0135 58.4927 20.3941 55.7101 20.3941 50.4348V25.0435C20.3941 22.7246 19.3011 21.3333 17.4027 21.3333V20H30.1738L38.8605 35.8841C40.5288 38.7826 41.1616 41.7391 41.2766 44.2319L51.2864 21.4493V20H64V21.3333C62.5618 21.3913 61.7564 21.7971 61.7564 23.3043V56.7536H61.6989Z" fill="#111111"/>
</svg>
