<svg width="97" height="33" viewBox="0 0 97 33" fill="none" xmlns="http://www.w3.org/2000/svg">
<path d="M29.145 23.614C29.145 24.5824 29.7077 24.8431 30.6079 24.8804V25.6998H20.8554V24.8431C21.7931 24.8059 22.3183 24.5451 22.3183 23.5767V3.72461L16.2042 17.6919C15.1914 20.0011 14.1411 22.7573 14.1411 25.6998H12.9783C12.9783 22.5339 12.0031 19.9639 10.2401 16.798L4.83875 7.18849C3.97602 5.6614 3.63844 4.54402 3.41338 2.79345V19.7032C3.41338 23.2043 5.32637 24.6569 8.58971 24.8431V25.6998H0V24.8431C1.31284 24.7314 2.21307 22.9436 2.21307 19.5542V3.24041C2.21307 1.75056 1.50039 0.856659 0.262568 0.856659V0H8.58971L14.2537 10.2054C15.3415 12.0677 15.7541 13.9673 15.8291 15.5688L22.3558 0.931151V0H30.6454V0.856659C29.7077 0.893905 29.1825 1.15463 29.1825 2.12302V23.614H29.145Z" fill="#111111"/>
<path d="M52.8886 7.0395V7.78442C52.2135 7.93341 51.2757 9.12528 50.338 11.0248L41.3357 29.1637C40.0978 31.6964 39.0101 33 36.722 33C35.0715 33 33.9463 31.8826 33.9463 30.281C33.9463 29.0892 34.6964 28.3442 35.7842 28.3442C36.2719 28.3442 36.8345 28.4932 37.4347 28.754C39.0476 29.4244 40.2479 28.9774 41.2231 27.1524L41.9733 25.7743L33.9463 9.49774C33.4211 8.45485 32.7835 7.85892 32.2208 7.78442V7.0395H42.611V7.78442C41.1106 7.85892 40.8855 8.86456 41.3357 9.83296L45.4242 18.772L48.9126 11.5463C50.0379 9.27427 48.8751 7.93341 45.9869 7.78442V7.0395H52.8886Z" fill="#111111"/>
<path d="M75.0568 24.9176V25.6998H65.6419V24.9176C66.5046 24.8431 67.1048 24.5079 67.1048 23.3905V12.6264C67.1048 10.4661 66.3921 9.16253 64.9667 9.16253C62.8662 9.16253 61.5534 11.5463 61.5534 15.6061V23.3533C61.5534 24.5079 62.191 24.8059 63.0162 24.8804V25.6998H53.6388V24.9176C54.5015 24.8431 55.1017 24.5079 55.1017 23.3905V12.1422C55.1017 11.3228 54.5766 10.8758 53.6388 10.8758V10.1682L60.203 6.36907H60.8782L61.1408 11.2856H61.2908C62.2285 8.26862 64.5166 6.55531 67.6674 6.55531C71.4559 6.55531 73.594 8.90181 73.594 12.8871V23.3533C73.594 24.5079 74.2316 24.8431 75.0568 24.9176Z" fill="#111111"/>
<path d="M97 20.4853L90.0232 26.2957H89.423L88.5228 21.64H88.4853C88.0352 24.4707 85.8971 26.1467 82.7088 26.1467C79.1079 26.1467 76.8198 23.9865 76.8198 20.746C76.8198 16.5745 81.2459 13.7065 88.0352 13.6321V11.0993C88.0352 8.86456 87.2475 7.33747 86.0847 7.33747C83.3465 7.33747 85.1094 13.4831 81.0584 13.4831C79.633 13.4831 78.7703 12.5892 78.7703 11.0993C78.7703 8.56659 81.8461 6.55531 86.5723 6.55531C91.5611 6.55531 94.5244 9.53499 94.5244 14.526V19.2562C94.5244 20.3736 95.012 20.6343 95.8372 20.2246L96.6249 19.8149L97 20.4853ZM88.0352 17.5056V14.4515C84.9969 14.6377 83.2339 16.7235 83.2339 20.2246C83.2339 22.5339 84.0217 23.912 85.4095 23.912C87.0224 23.912 88.0352 21.342 88.0352 17.5056Z" fill="#111111"/>
</svg>
