<svg width="96" height="60" viewBox="0 0 96 60" fill="none" xmlns="http://www.w3.org/2000/svg">
<path d="M47.7717 23.1522C54.165 23.1522 59.3478 17.9694 59.3478 11.5761C59.3478 5.18279 54.165 0 47.7717 0C41.3784 0 36.1957 5.18279 36.1957 11.5761C36.1957 17.9694 41.3784 23.1522 47.7717 23.1522Z" fill="#111111"/>
<path d="M47.7717 23.1522C39.1304 23.1522 32.1196 30.163 32.1196 38.8043V57.8804C32.1196 59.0217 33.0978 60 34.2391 60H61.1413C62.2826 60 63.2609 59.0217 63.2609 57.8804V38.6413C63.4239 30.163 56.413 23.1522 47.7717 23.1522Z" fill="#111111"/>
<path d="M85.2717 34.4022C89.1848 32.1196 91.6304 27.8804 91.6304 23.1522C91.6304 15.8152 85.7609 9.94565 78.4239 9.94565C71.087 9.94565 65.2174 15.8152 65.2174 23.1522C65.2174 27.8804 67.8261 32.1196 71.7391 34.4022C69.4565 35.3804 67.337 36.8478 65.7065 38.6413C65.0544 39.2935 65.2174 40.2717 65.8696 40.9239C66.5217 41.5761 67.5 41.413 68.1522 40.7609C70.7609 37.8261 74.5109 36.1957 78.587 36.1957C86.25 36.1957 92.6087 42.3913 92.6087 50.2174V57.7174C92.6087 58.6957 93.2609 59.3478 94.2391 59.3478C95.2174 59.3478 95.8696 58.6957 95.8696 57.7174V50.2174C95.7065 43.2065 91.3044 37.0109 85.2717 34.4022ZM68.4783 23.1522C68.4783 17.6087 72.8804 13.2065 78.4239 13.2065C83.9674 13.2065 88.3696 17.6087 88.3696 23.1522C88.3696 28.6957 83.9674 33.0978 78.4239 33.0978C73.0435 33.0978 68.4783 28.5326 68.4783 23.1522Z" fill="#111111"/>
<path d="M23.9674 34.4022C27.8804 32.1196 30.4891 27.8804 30.4891 23.1522C30.4891 15.8152 24.6196 9.94565 17.2826 9.94565C9.94565 9.94565 4.07609 15.8152 4.07609 23.1522C4.07609 27.8804 6.68478 32.1196 10.4348 34.4022C4.40217 37.0109 0 43.2065 0 50.2174V57.7174C0 58.6957 0.652174 59.3478 1.63043 59.3478C2.6087 59.3478 3.26087 58.6957 3.26087 57.7174V50.2174C3.26087 42.5543 9.45652 36.1957 17.2826 36.1957C21.1957 36.1957 24.9457 37.8261 27.7174 40.7609C28.3696 41.413 29.3478 41.413 30 40.9239C30.6522 40.4348 30.6522 39.2935 30.163 38.6413C28.3696 36.8478 26.25 35.3804 23.9674 34.4022ZM7.33696 23.1522C7.33696 17.6087 11.7391 13.2065 17.2826 13.2065C22.8261 13.2065 27.2283 17.6087 27.2283 23.1522C27.2283 28.6957 22.8261 33.0978 17.2826 33.0978C11.7391 33.0978 7.33696 28.5326 7.33696 23.1522Z" fill="#111111"/>
</svg>
