<svg width="62" height="60" viewBox="0 0 62 60" fill="none" xmlns="http://www.w3.org/2000/svg">
<path d="M50.148 19.9282H44.5521V22.0826H48.8566L57.4657 38.7792H38.0952C38.0952 42.6571 34.6516 45.781 30.4547 45.781C26.2577 45.781 22.8141 42.6571 22.8141 38.7792H3.44364L12.0527 22.0826H16.3573V19.9282H10.7614L0 41.0413V60H61.0169V41.0413L50.148 19.9282Z" fill="#FFCE00"/>
<path d="M17.5411 0V32.8546H43.5836V0H17.5411ZM33.3603 25.3142H22.2761V23.6984H33.3603V25.3142ZM38.741 19.9282H22.2761V18.3124H38.741V19.9282ZM38.741 14.5422H22.2761V12.9264H38.741V14.5422ZM38.741 9.15619H22.2761V7.54039H38.741V9.15619Z" fill="#FFCE00"/>
</svg>
