<svg width="80" height="60" viewBox="0 0 80 60" fill="none" xmlns="http://www.w3.org/2000/svg">
<path d="M73.924 0H33.4516C30.4231 0 27.9452 2.4779 27.9452 5.50644V18.7219C27.9452 19.5479 28.4958 20.0985 29.3218 20.0985C30.1478 20.0985 30.6984 19.5479 30.6984 18.7219V5.50644C30.6984 3.99217 31.9374 2.75322 33.4516 2.75322H73.924C75.4383 2.75322 76.6772 3.99217 76.6772 5.50644V26.5686C76.6772 28.0829 75.4383 29.3218 73.924 29.3218H68.2799C67.4539 29.3218 66.9033 29.8725 66.9033 30.6984V37.1685L59.4696 29.7348C59.1943 29.4595 58.9189 29.3218 58.506 29.3218H52.8619C52.0359 29.3218 51.4853 29.8725 51.4853 30.6984C51.4853 31.5244 52.0359 32.075 52.8619 32.075H57.9553L64.976 39.0958C65.5267 39.6464 66.215 39.9217 66.9033 39.9217C67.3163 39.9217 67.5916 39.9217 68.0046 39.6464C69.1059 39.2334 69.6565 38.2698 69.6565 37.1685V32.075H73.924C76.9526 32.075 79.4305 29.5971 79.4305 26.5686V5.50644C79.4305 2.4779 76.9526 0 73.924 0Z" fill="#111111"/>
<path d="M44.6022 22.8517H4.12983C1.78959 22.8517 0 24.6413 0 26.9816V48.0437C0 50.384 1.78959 52.1736 4.12983 52.1736H9.77394V58.6436C9.77394 59.8826 11.2882 60.4332 12.1142 59.6073L19.5479 52.1736H44.7399C47.0801 52.1736 48.8697 50.384 48.8697 48.0437V26.9816C48.732 24.6413 46.9424 22.8517 44.6022 22.8517ZM12.8025 34.6906C14.3168 34.6906 15.5557 35.9295 15.5557 37.4438C15.5557 38.9581 14.3168 40.197 12.8025 40.197C11.2882 40.197 10.0493 38.9581 10.0493 37.4438C10.0493 35.9295 11.2882 34.6906 12.8025 34.6906ZM24.5037 40.197C22.9894 40.197 21.7505 38.9581 21.7505 37.4438C21.7505 35.9295 22.9894 34.6906 24.5037 34.6906C26.0179 34.6906 27.2569 35.9295 27.2569 37.4438C27.2569 38.9581 26.0179 40.197 24.5037 40.197ZM36.2049 40.197C34.6906 40.197 33.4516 38.9581 33.4516 37.4438C33.4516 35.9295 34.6906 34.6906 36.2049 34.6906C37.7191 34.6906 38.9581 35.9295 38.9581 37.4438C38.9581 38.9581 37.7191 40.197 36.2049 40.197Z" fill="#111111"/>
<path d="M62.6358 19.1349V12.9401C62.6358 12.1142 62.0852 11.5635 61.2592 11.5635C60.4332 11.5635 59.8826 12.1142 59.8826 12.9401V19.1349C59.8826 19.9609 60.4332 20.5115 61.2592 20.5115C62.0852 20.5115 62.6358 19.8232 62.6358 19.1349Z" fill="#111111"/>
<path d="M47.4931 19.1349V12.9401C47.4931 12.1142 46.9424 11.5635 46.1165 11.5635C45.2905 11.5635 44.7399 12.1142 44.7399 12.9401V19.1349C44.7399 19.9609 45.2905 20.5115 46.1165 20.5115C46.9424 20.5115 47.4931 19.8232 47.4931 19.1349Z" fill="#111111"/>
<path d="M55.0644 21.6128V10.4622C55.0644 9.63628 54.5138 9.08563 53.6878 9.08563C52.8619 9.08563 52.3112 9.63628 52.3112 10.4622V21.6128C52.3112 22.4388 52.8619 22.9894 53.6878 22.9894C54.5138 22.9894 55.0644 22.3011 55.0644 21.6128Z" fill="#111111"/>
</svg>
