<svg width="81" height="60" viewBox="0 0 81 60" fill="none" xmlns="http://www.w3.org/2000/svg">
<path d="M39.9528 25.1295C35.7175 25.1295 32.3293 28.5177 32.3293 32.753C32.3293 36.9883 35.7175 40.3765 39.9528 40.3765C44.1881 40.3765 47.5763 36.9883 47.5763 32.753C47.7175 28.6589 44.1881 25.1295 39.9528 25.1295ZM37.694 36.2824V29.3648L43.341 32.8942L37.694 36.2824Z" fill="#FFCE00"/>
<path d="M75.8118 0H4.23529C1.83529 0 0 1.83529 0 4.23529V55.7647C0 58.1647 1.83529 60 4.23529 60H75.8118C78.2118 60 80.0471 58.1647 80.0471 55.7647V4.23529C80.0471 1.83529 78.0706 0 75.8118 0ZM11.0118 3.67059C11.5765 3.67059 12 4.09412 12 4.65882C12 5.22353 11.5765 5.78824 11.0118 5.78824C10.4471 5.78824 10.0235 5.22353 10.0235 4.65882C10.0235 4.09412 10.4471 3.67059 11.0118 3.67059ZM8.18824 3.67059C8.75294 3.67059 9.17647 4.09412 9.17647 4.65882C9.17647 5.22353 8.61176 5.78824 8.18824 5.78824C7.76471 5.78824 7.05882 5.22353 7.05882 4.65882C7.05882 4.09412 7.62353 3.67059 8.18824 3.67059ZM5.22353 3.67059C5.78824 3.67059 6.21176 4.09412 6.21176 4.65882C6.21176 5.22353 5.78824 5.78824 5.22353 5.78824C4.65882 5.78824 4.23529 5.22353 4.23529 4.65882C4.23529 4.09412 4.65882 3.67059 5.22353 3.67059ZM75.8118 55.7647H4.23529V9.88235H75.8118V55.7647Z" fill="#FFCE00"/>
</svg>
