<svg width="34" height="24" viewBox="0 0 34 24" fill="none" xmlns="http://www.w3.org/2000/svg">
<path d="M31.0857 24H2.91429C1.30171 24 0 22.7136 0 21.12V2.88C0 1.2864 1.30171 0 2.91429 0H31.0857C32.6983 0 34 1.2864 34 2.88V21.12C34 22.7136 32.6983 24 31.0857 24Z" fill="#F8F8F8"/>
<path d="M31.0857 0.96C32.1543 0.96 33.0286 1.824 33.0286 2.88V21.12C33.0286 22.176 32.1543 23.04 31.0857 23.04H2.91429C1.84571 23.04 0.971429 22.176 0.971429 21.12V2.88C0.971429 1.824 1.84571 0.96 2.91429 0.96H31.0857ZM31.0857 0H2.91429C1.30171 0 0 1.2864 0 2.88V21.12C0 22.7136 1.30171 24 2.91429 24H31.0857C32.6983 24 34 22.7136 34 21.12V2.88C34 1.2864 32.6983 0 31.0857 0Z" fill="#E7E7E7"/>
<path d="M14.2697 7.88164L12.4823 16.08H14.6388L16.4263 7.88164H14.2697ZM28.1611 7.88164H26.3251C25.9171 7.88164 25.5577 8.12164 25.412 8.47684L22.1674 16.08H24.4308L24.8777 14.8512H27.6463L27.9086 16.08H29.9097L28.1611 7.88164ZM25.5091 13.1712L26.636 10.0992L27.2868 13.1712H25.5091ZM11.0737 7.88164L8.8297 13.4592L7.91656 8.71684C7.79999 8.17924 7.39199 7.87204 6.91599 7.87204H3.26342L3.21484 8.11204C3.97256 8.27524 4.8177 8.53444 5.34227 8.80324C5.65313 8.98564 5.75027 9.12964 5.84742 9.53284L7.56684 16.0896H9.83999L13.3468 7.89124L11.0737 7.88164C11.0737 7.89124 11.0737 7.88164 11.0737 7.88164ZM19.2628 10.1664C19.2628 9.87844 19.5543 9.55204 20.176 9.48484C20.4868 9.45604 21.3417 9.41764 22.3034 9.85924L22.6823 8.11204C22.1577 7.92964 21.4874 7.75684 20.6714 7.75684C18.544 7.75684 17.0383 8.87044 17.0188 10.4736C16.9994 11.6544 18.0971 12.3168 18.9034 12.7104C19.7388 13.1136 20.0303 13.3728 20.0206 13.728C20.0206 14.2752 19.3503 14.5248 18.7286 14.5344C17.6503 14.5536 17.0091 14.2464 16.5137 14.016L16.1251 15.8112C16.6303 16.0416 17.5628 16.2336 18.5343 16.2528C20.8074 16.2528 22.284 15.1488 22.3034 13.4496C22.284 11.2512 19.2434 11.1168 19.2628 10.1664Z" fill="#0F2496"/>
</svg>
